<svg width="20" height="20" viewBox="0 0 20 20" fill="none" xmlns="http://www.w3.org/2000/svg">
<path d="M10.0001 20C7.51761 20.0001 5.12383 19.0767 3.28441 17.4095C1.44499 15.7424 0.291448 13.4506 0.0481588 10.98C-0.19513 8.50947 0.489231 6.03673 1.96812 4.04279C3.44702 2.04886 5.6147 0.676299 8.04954 0.192089C10.4844 -0.292121 13.0123 0.146641 15.1415 1.42303C17.2708 2.69942 18.8492 4.72218 19.5696 7.09785C20.2901 9.47352 20.1012 12.0323 19.0396 14.2763C17.978 16.5204 16.1196 18.2894 13.826 19.2392C12.6128 19.741 11.3129 19.9995 10.0001 20ZM10.0068 13.595C9.66201 13.595 9.33135 13.732 9.08755 13.9758C8.84376 14.2196 8.70679 14.5502 8.70679 14.895C8.70679 15.2398 8.84376 15.5705 9.08755 15.8143C9.33135 16.0581 9.66201 16.195 10.0068 16.195C10.3516 16.195 10.6822 16.0581 10.926 15.8143C11.1698 15.5705 11.3068 15.2398 11.3068 14.895C11.3068 14.5502 11.1698 14.2196 10.926 13.9758C10.6822 13.732 10.3516 13.595 10.0068 13.595ZM9.99513 3.80669C9.65827 3.81413 9.3381 3.95478 9.10474 4.19782C8.87139 4.44086 8.74387 4.76648 8.75013 5.10336V11.3259C8.73603 11.498 8.75778 11.6713 8.81399 11.8346C8.87021 11.9979 8.95967 12.1479 9.07673 12.2749C9.19379 12.4019 9.33591 12.5033 9.49413 12.5727C9.65234 12.642 9.82321 12.6778 9.99596 12.6778C10.1687 12.6778 10.3396 12.642 10.4978 12.5727C10.656 12.5033 10.7981 12.4019 10.9152 12.2749C11.0323 12.1479 11.1217 11.9979 11.1779 11.8346C11.2341 11.6713 11.2559 11.498 11.2418 11.3259V5.10336C11.248 4.7662 11.1203 4.44033 10.8866 4.19724C10.6529 3.95415 10.3323 3.8137 9.99513 3.80669Z" fill="#FAFA69"/>
</svg>
