<svg width="7" height="10" viewBox="0 0 7 10" fill="none" xmlns="http://www.w3.org/2000/svg">
<path d="M0.997192 9.96069C0.799213 9.96006 0.60588 9.90071 0.441681 9.7901C0.277482 9.67949 0.149795 9.52259 0.0748292 9.33936C-0.000137016 9.15612 -0.0190145 8.95479 0.0205689 8.7608C0.0601524 8.56682 0.156415 8.38891 0.29718 8.24969L3.58618 4.99774L0.293182 1.7077C0.105542 1.52019 9.38308e-05 1.26582 6.25827e-08 1.00055C-9.37056e-05 0.735279 0.105186 0.480854 0.292694 0.293213C0.480202 0.105572 0.734577 9.38308e-05 0.999847 6.25647e-08C1.26512 -9.37056e-05 1.51954 0.105217 1.70718 0.292725L5.71219 4.29272C5.80577 4.38567 5.88005 4.49621 5.93073 4.61798C5.9814 4.73975 6.00748 4.8703 6.00748 5.0022C6.00748 5.13409 5.9814 5.26471 5.93073 5.38647C5.88005 5.50824 5.80577 5.61879 5.71219 5.71173L1.70718 9.67072C1.61374 9.7634 1.50294 9.83671 1.3811 9.88647C1.25927 9.93624 1.1288 9.96145 0.997192 9.96069V9.96069Z" fill="white"/>
</svg>
