<svg width="13" height="22" viewBox="0 0 13 22" fill="none" xmlns="http://www.w3.org/2000/svg">
    <path d="M0.335576 10.145L9.61082 0.353535C9.82571 0.127148 10.1169 0 10.4205 0C10.7242 0 11.0154 0.127148 11.2303 0.353535L12.3128 1.49612C12.5272 1.72268 12.6476 2.0298 12.6476 2.35001C12.6476 2.67022 12.5272 2.97734 12.3128 3.2039L4.96089 10.9943L12.3157 18.7923C12.5297 19.019 12.6499 19.3261 12.6499 19.6462C12.6499 19.9663 12.5297 20.2733 12.3157 20.5001L11.2317 21.6457C11.0168 21.8726 10.7252 22 10.4213 22C10.1173 22 9.82577 21.8726 9.61082 21.6457L0.334128 11.8543C0.119833 11.6273 -0.000370026 11.3198 -9.82285e-05 10.9993C0.000172615 10.6788 0.120897 10.3716 0.335576 10.145Z" fill="white"/>
</svg>
