<svg width="24" height="24" viewBox="0 0 24 24" fill="none" xmlns="http://www.w3.org/2000/svg">
<path fill-rule="evenodd" clip-rule="evenodd" d="M18 3.5H9.3333V7.83363H20.5V6C20.5 4.61929 19.3807 3.5 18 3.5ZM20.5 9.33363H9.3333V20.5H18C19.3807 20.5 20.5 19.3807 20.5 18V9.33363ZM7.8333 7.83363V3.5H6C4.61929 3.5 3.5 4.61929 3.5 6V7.83363H7.8333ZM3.5 9.33363H7.8333V20.5H6C4.61929 20.5 3.5 19.3807 3.5 18V9.33363ZM6 2C3.79086 2 2 3.79086 2 6V18C2 20.2091 3.79086 22 6 22H18C20.2091 22 22 20.2091 22 18V6C22 3.79086 20.2091 2 18 2H6Z" fill="#002269"/>
</svg>
