<svg width="29" height="29" viewBox="0 0 29 29" fill="none" xmlns="http://www.w3.org/2000/svg">
<path fill-rule="evenodd" clip-rule="evenodd" d="M9.34097 4.96537C7.93522 4.96373 6.5724 5.43956 5.4848 6.31174C4.3972 7.18392 3.65215 8.39847 3.37662 9.74837C3.1011 11.0983 3.31217 12.5 3.97385 13.7145C4.63554 14.9291 5.70688 15.8813 7.00526 16.409C8.30365 16.9366 9.74871 17.007 11.0941 16.6081C12.4396 16.2092 13.6021 15.3657 14.3836 14.2214C15.165 13.0771 15.517 11.7028 15.3796 10.3328C15.2422 8.9628 14.6238 7.68187 13.63 6.70834C12.4929 5.59341 10.9501 4.96645 9.34097 4.96537ZM9.35151 6.53652C8.31725 6.53532 7.31456 6.8854 6.51437 7.5271C5.71418 8.1688 5.16601 9.06239 4.9633 10.0556C4.76059 11.0487 4.91588 12.08 5.40271 12.9736C5.88953 13.8672 6.67776 14.5679 7.63304 14.9561C8.58831 15.3443 9.6515 15.396 10.6414 15.1025C11.6313 14.809 12.4866 14.1885 13.0615 13.3465C13.6365 12.5046 13.8955 11.4935 13.7944 10.4856C13.6933 9.4776 13.2383 8.53516 12.5071 7.8189C11.6705 6.9986 10.5354 6.53732 9.35151 6.53652Z" fill="#B3BDD2"/>
<path d="M3.40152 17.4845C5.07775 16.0363 7.17816 15.2463 9.34473 15.249C11.8247 15.2508 14.2025 16.2918 15.955 18.143C17.4868 19.7594 18.4398 21.8862 18.6516 24.1609C18.6574 24.2227 18.6626 24.2844 18.6672 24.3461C18.1208 24.8125 17.5388 25.2374 16.9262 25.6168V24.7595C16.9224 24.7093 16.9182 24.659 16.9135 24.6088C16.7413 22.7585 15.966 21.0284 14.72 19.7135C13.2944 18.2076 11.3601 17.3608 9.34276 17.3593C7.58034 17.3571 5.87174 17.9998 4.50819 19.1778C3.14464 20.3558 2.21054 21.9962 1.86511 23.8195C1.80604 24.1313 1.7648 24.4452 1.74119 24.7594V25.5584C1.19163 25.2068 0.493311 24.7672 0 24.3461C0.0290306 23.9597 0.079719 23.5739 0.152343 23.1905C0.576983 20.9492 1.72528 18.9326 3.40152 17.4845Z" fill="#B3BDD2"/>
<path fill-rule="evenodd" clip-rule="evenodd" d="M20.6518 2.41666C19.3935 2.4152 18.1736 2.84111 17.2001 3.62181C16.2265 4.40251 15.5596 5.48967 15.313 6.69798C15.0664 7.9063 15.2553 9.16097 15.8476 10.2481C16.4399 11.3353 17.3988 12.1877 18.561 12.66C19.7232 13.1323 21.0167 13.1953 22.2211 12.8382C23.4254 12.4811 24.466 11.7261 25.1654 10.7018C25.8649 9.67756 26.18 8.44744 26.057 7.22113C25.934 5.99482 25.3805 4.84823 24.4909 3.97681C23.4731 2.97883 22.0921 2.41763 20.6518 2.41666ZM20.6611 3.8228C19.7353 3.82172 18.8378 4.13509 18.1215 4.70948C17.4053 5.28387 16.9146 6.08374 16.7332 6.97275C16.5517 7.86175 16.6907 8.78486 17.1265 9.58474C17.5622 10.3846 18.2678 11.0117 19.1229 11.3592C19.9779 11.7067 20.9296 11.7531 21.8157 11.4904C22.7018 11.2276 23.4674 10.6721 23.982 9.91855C24.4966 9.16494 24.7285 8.25989 24.638 7.35764C24.5475 6.4554 24.1402 5.61181 23.4857 4.97067C22.7368 4.23641 21.7208 3.82352 20.6611 3.8228Z" fill="#B3BDD2"/>
<path d="M15.3355 13.6227C16.8359 12.3265 18.716 11.6193 20.6553 11.6217C22.8752 11.6234 25.0036 12.5552 26.5723 14.2122C27.9434 15.6591 28.7965 17.5628 28.986 19.5989C28.9912 19.6542 28.9958 19.7094 29 19.7647C28.5109 20.1822 27.9899 20.5625 27.4416 20.9021V20.1347C27.4382 20.0897 27.4344 20.0448 27.4303 19.9999C27.276 18.3436 26.5821 16.7949 25.4668 15.6179C24.1907 14.27 22.4593 13.512 20.6535 13.5107C19.076 13.5088 17.5466 14.084 16.3261 15.1385C15.5126 15.8412 14.87 16.7278 14.4402 17.7241L13.0674 16.687C13.595 15.5087 14.3667 14.4597 15.3355 13.6227Z" fill="#B3BDD2"/>
</svg>
