<svg width="24" height="24" viewBox="0 0 30 29" fill="none" xmlns="http://www.w3.org/2000/svg">
<path fill-rule="evenodd" clip-rule="evenodd" d="M1.84497 1.81849V11.8771H11.8704V1.81849H1.84497ZM1.2408 0C0.573459 0 0.0324707 0.542778 0.0324707 1.21233V12.4832C0.0324707 13.1528 0.57346 13.6956 1.2408 13.6956H12.4746C13.1419 13.6956 13.6829 13.1528 13.6829 12.4832V1.21233C13.6829 0.542777 13.1419 0 12.4746 0H1.2408Z" fill="#B3BDD2"/>
<path fill-rule="evenodd" clip-rule="evenodd" d="M17.1946 1.81849V11.8771H27.22V1.81849H17.1946ZM16.5904 0C15.9231 0 15.3821 0.542778 15.3821 1.21233V12.4832C15.3821 13.1528 15.9231 13.6956 16.5904 13.6956H27.8242C28.4915 13.6956 29.0325 13.1528 29.0325 12.4832V1.21233C29.0325 0.542777 28.4915 0 27.8242 0H16.5904Z" fill="#B3BDD2"/>
<path fill-rule="evenodd" clip-rule="evenodd" d="M17.1946 17.1232V27.1818H27.22V17.1232H17.1946ZM16.5904 15.3047C15.9231 15.3047 15.3821 15.8475 15.3821 16.517V27.7879C15.3821 28.4575 15.9231 29.0002 16.5904 29.0002H27.8242C28.4915 29.0002 29.0325 28.4575 29.0325 27.7879V16.517C29.0325 15.8475 28.4915 15.3047 27.8242 15.3047H16.5904Z" fill="#B3BDD2"/>
<path fill-rule="evenodd" clip-rule="evenodd" d="M1.84497 17.1232V27.1818H11.8704V17.1232H1.84497ZM1.2408 15.3047C0.573459 15.3047 0.0324707 15.8475 0.0324707 16.517V27.7879C0.0324707 28.4575 0.57346 29.0002 1.2408 29.0002H12.4746C13.1419 29.0002 13.6829 28.4575 13.6829 27.7879V16.517C13.6829 15.8475 13.1419 15.3047 12.4746 15.3047H1.2408Z" fill="#B3BDD2"/>
</svg>
