<svg width="24" height="5" viewBox="0 0 24 5" fill="none" xmlns="http://www.w3.org/2000/svg">
<path d="M11.9854 2.73481e-06C11.3963 0.000946344 10.8286 0.220916 10.3926 0.617153C9.95658 1.01339 9.6835 1.55759 9.62641 2.14395C9.56932 2.73032 9.7323 3.31697 10.0837 3.78987C10.435 4.26276 10.9497 4.58811 11.5276 4.70268C12.1055 4.81725 12.7053 4.71284 13.2105 4.40976C13.7157 4.10668 14.0902 3.62658 14.2611 3.06278C14.4321 2.49897 14.3872 1.89176 14.1354 1.35916C13.8835 0.826561 13.4427 0.406633 12.8984 0.181003C12.609 0.0610417 12.2987 -0.000472685 11.9854 2.73481e-06Z" fill="#5046FF"/>
<path d="M2.3742 7.6372e-09C1.78488 -4.72362e-05 1.21661 0.219095 0.779918 0.614807C0.343221 1.01052 0.0693143 1.55451 0.0114693 2.14098C-0.0463756 2.72745 0.115977 3.31447 0.466951 3.78787C0.817924 4.26127 1.33243 4.58721 1.9104 4.70229C2.48836 4.81738 3.08848 4.71338 3.59402 4.41053C4.09956 4.10768 4.47439 3.62762 4.6456 3.06372C4.81682 2.49983 4.77218 1.89241 4.52037 1.3596C4.26856 0.826798 3.82758 0.406695 3.2832 0.181C2.99502 0.0615555 2.68614 5.1158e-05 2.3742 7.6372e-09Z" fill="#5046FF"/>
<path d="M21.6242 7.6372e-09C21.0349 -4.72362e-05 20.4666 0.219095 20.0299 0.614807C19.5932 1.01052 19.3193 1.55451 19.2615 2.14098C19.2036 2.72745 19.366 3.31447 19.7169 3.78787C20.0679 4.26127 20.5824 4.58721 21.1604 4.70229C21.7384 4.81738 22.3385 4.71338 22.844 4.41053C23.3496 4.10768 23.7244 3.62762 23.8956 3.06372C24.0668 2.49983 24.0222 1.89241 23.7704 1.3596C23.5186 0.826798 23.0776 0.406695 22.5332 0.181C22.245 0.0615555 21.9361 5.1158e-05 21.6242 7.6372e-09Z" fill="#5046FF"/>
</svg>
