<svg width="19" height="19" viewBox="0 0 19 19" fill="#E92033" xmlns="http://www.w3.org/2000/svg">
<path d="M9.92247 1.00001C7.86004 0.997776 5.86066 1.71088 4.26514 3.01776C2.66961 4.32464 1.5767 6.14442 1.17269 8.16689C0.768682 10.1894 1.07858 12.2894 2.04957 14.1089C3.02055 15.9285 4.59252 17.355 6.49753 18.1453C8.40253 18.9356 10.5227 19.0408 12.4965 18.4429C14.4704 17.8451 16.1759 16.5811 17.3222 14.8666C18.4685 13.1521 18.9847 11.0931 18.7829 9.04055C18.581 6.98801 17.6736 5.069 16.2153 3.61061C14.5468 1.94047 12.2832 1.00142 9.92247 1.00001V1.00001ZM9.92247 17.3827C8.19034 17.3841 6.51136 16.7847 5.17165 15.6868C3.83195 14.5888 2.91444 13.0603 2.5755 11.3617C2.23656 9.66301 2.49716 7.89939 3.31289 6.37137C4.12862 4.84335 5.44899 3.64549 7.04898 2.98194C8.64897 2.31839 10.4296 2.23022 12.0873 2.73245C13.745 3.23468 15.1772 4.29623 16.1399 5.73619C17.1027 7.17614 17.5362 8.90539 17.3667 10.6292C17.1973 12.353 16.4353 13.9647 15.2106 15.1896C14.5164 15.8846 13.6921 16.436 12.7847 16.8122C11.8774 17.1885 10.9048 17.3824 9.92247 17.3827V17.3827Z" stroke-width="0.2"/>
<path d="M9.17862 13.5789C9.39804 13.3595 9.69563 13.2363 10.0059 13.2363C10.3162 13.2363 10.6138 13.3595 10.8333 13.5789C11.0527 13.7984 11.1759 14.096 11.1759 14.4063C11.1759 14.7166 11.0527 15.0142 10.8333 15.2336C10.6138 15.453 10.3162 15.5763 10.0059 15.5763C9.69563 15.5763 9.39804 15.453 9.17862 15.2336C8.9592 15.0142 8.83594 14.7166 8.83594 14.4063C8.83594 14.096 8.9592 13.7984 9.17862 13.5789Z"/>
<path d="M9.19409 4.77877C9.40412 4.56003 9.69227 4.43345 9.99544 4.42676C10.2989 4.43306 10.5874 4.55947 10.7978 4.77825C11.0081 4.99703 11.1231 5.29031 11.1174 5.59376V11.194C11.1301 11.349 11.1105 11.5049 11.06 11.6519C11.0094 11.7989 10.9289 11.9338 10.8235 12.0481C10.7181 12.1625 10.5902 12.2537 10.4478 12.3161C10.3054 12.3786 10.1517 12.4108 9.99619 12.4108C9.84072 12.4108 9.68693 12.3786 9.54454 12.3161C9.40214 12.2537 9.27424 12.1625 9.16888 12.0481C9.06352 11.9338 8.98301 11.7989 8.93242 11.6519C8.88183 11.5049 8.86225 11.349 8.87494 11.194V5.59376C8.86931 5.29057 8.98407 4.99751 9.19409 4.77877Z"/>
</svg>
