<svg width="24" height="24" viewBox="0 0 24 24" fill="none" xmlns="http://www.w3.org/2000/svg">
<path d="M24 12C24 9.62663 23.2962 7.30655 21.9776 5.33316C20.6591 3.35977 18.7849 1.8217 16.5922 0.913451C14.3995 0.00519943 11.9867 -0.232441 9.65892 0.230582C7.33115 0.693605 5.19295 1.83649 3.51472 3.51472C1.83649 5.19295 0.693605 7.33115 0.230582 9.65892C-0.232441 11.9867 0.00519943 14.3995 0.913451 16.5922C1.8217 18.7849 3.35977 20.6591 5.33316 21.9776C7.30655 23.2962 9.62663 24 12 24C15.1826 24 18.2349 22.7357 20.4853 20.4853C22.7357 18.2349 24 15.1826 24 12Z" fill="white"/>
<path d="M10.5001 16.9797C10.3021 16.9791 10.1088 16.9198 9.94461 16.8091C9.78041 16.6985 9.65273 16.5416 9.57776 16.3584C9.50279 16.1752 9.48392 15.9738 9.5235 15.7798C9.56308 15.5859 9.65934 15.408 9.80011 15.2687L13.0891 12.0168L9.79611 8.72675C9.60847 8.53924 9.50302 8.28486 9.50293 8.01959C9.50284 7.75432 9.60812 7.4999 9.79562 7.31226C9.98313 7.12462 10.2375 7.01914 10.5028 7.01904C10.768 7.01895 11.0225 7.12426 11.2101 7.31177L15.2151 11.3118C15.3087 11.4047 15.383 11.5153 15.4337 11.637C15.4843 11.7588 15.5104 11.8893 15.5104 12.0212C15.5104 12.1531 15.4843 12.2838 15.4337 12.4055C15.383 12.5273 15.3087 12.6378 15.2151 12.7308L11.2101 16.6898C11.1167 16.7824 11.0059 16.8558 10.884 16.9055C10.7622 16.9553 10.6317 16.9805 10.5001 16.9797Z" fill="#022269"/>
</svg>
