<svg width="24" height="24" viewBox="0 0 24 24" fill="none" xmlns="http://www.w3.org/2000/svg">
<path d="M23 9.73404C23.2633 9.73559 23.5196 9.64991 23.7291 9.4904C23.9386 9.33088 24.0894 9.10651 24.1579 8.85229C24.2264 8.59807 24.2088 8.32831 24.1079 8.08513C24.007 7.84195 23.8284 7.63903 23.6 7.50804L13.19 0.541043C13.0102 0.43769 12.8064 0.383301 12.599 0.383301C12.3916 0.383301 12.1878 0.43769 12.008 0.541043L0.999971 7.50004C0.771546 7.6301 0.592561 7.83207 0.490913 8.07447C0.389264 8.31688 0.370663 8.5861 0.438007 8.84018C0.505351 9.09426 0.654857 9.31893 0.863225 9.47916C1.07159 9.6394 1.32712 9.7262 1.58997 9.72604H4.36597V18.51H1.53197C1.47616 18.51 1.42089 18.521 1.36933 18.5424C1.31777 18.5638 1.27092 18.5951 1.23145 18.6345C1.19199 18.674 1.16068 18.7208 1.13932 18.7724C1.11796 18.824 1.10697 18.8792 1.10697 18.935V23.185C1.10697 23.2978 1.15175 23.4059 1.23145 23.4856C1.31115 23.5653 1.41925 23.61 1.53197 23.61H23.066C23.1787 23.61 23.2868 23.5653 23.3665 23.4856C23.4462 23.4059 23.491 23.2978 23.491 23.185V18.935C23.491 18.8792 23.48 18.824 23.4586 18.7724C23.4373 18.7208 23.406 18.674 23.3665 18.6345C23.327 18.5951 23.2802 18.5638 23.2286 18.5424C23.177 18.521 23.1218 18.51 23.066 18.51H20.232V9.73404H23ZM1.59297 8.88404C1.51814 8.88338 1.4456 8.8582 1.38645 8.81236C1.32731 8.76652 1.28484 8.70254 1.26554 8.63024C1.24625 8.55794 1.2512 8.48131 1.27963 8.41209C1.30807 8.34288 1.35842 8.2849 1.42297 8.24704L1.44097 8.23704L1.45697 8.22604L12.441 1.27204C12.4884 1.24797 12.5408 1.23543 12.594 1.23543C12.6471 1.23543 12.6996 1.24797 12.747 1.27204L23.124 8.21804L23.149 8.23404L23.175 8.24904C23.2395 8.2869 23.2899 8.34488 23.3183 8.41409C23.3467 8.48331 23.3517 8.55994 23.3324 8.63224C23.3131 8.70454 23.2706 8.76852 23.2115 8.81436C23.1523 8.8602 23.0798 8.88538 23.005 8.88604H1.59297V8.88404ZM14.566 9.73404V18.518H10.038V9.73404H14.566ZM5.21597 9.73404H9.18197V18.518H5.21797L5.21597 9.73404ZM22.641 19.368V22.768H1.95697V19.368H22.641ZM19.382 18.518H15.416V9.73404H19.382V18.518Z" fill="#002269" stroke="#002269"/>
</svg>
