<svg width="25" height="24" viewBox="0 0 25 24" fill="none" xmlns="http://www.w3.org/2000/svg">
    <path d="M22.9999 9.73404C23.2632 9.73559 23.5196 9.64991 23.7291 9.4904C23.9385 9.33088 24.0893 9.10651 24.1578 8.85229C24.2263 8.59807 24.2088 8.32831 24.1078 8.08513C24.0069 7.84195 23.8283 7.63903 23.5999 7.50804L13.1899 0.541043C13.0101 0.43769 12.8063 0.383301 12.5989 0.383301C12.3915 0.383301 12.1877 0.43769 12.0079 0.541043L0.99991 7.50004C0.771485 7.6301 0.5925 7.83207 0.490852 8.07447C0.389203 8.31688 0.370602 8.5861 0.437946 8.84018C0.50529 9.09426 0.654796 9.31893 0.863164 9.47916C1.07153 9.6394 1.32706 9.7262 1.58991 9.72604H4.36591V18.51H1.53191C1.4761 18.51 1.42083 18.521 1.36927 18.5424C1.31771 18.5638 1.27085 18.5951 1.23139 18.6345C1.19192 18.674 1.16062 18.7208 1.13926 18.7724C1.1179 18.824 1.10691 18.8792 1.10691 18.935V23.185C1.10691 23.2978 1.15169 23.4059 1.23139 23.4856C1.31109 23.5653 1.41919 23.61 1.53191 23.61H23.0659C23.1786 23.61 23.2867 23.5653 23.3664 23.4856C23.4461 23.4059 23.4909 23.2978 23.4909 23.185V18.935C23.4909 18.8792 23.4799 18.824 23.4586 18.7724C23.4372 18.7208 23.4059 18.674 23.3664 18.6345C23.327 18.5951 23.2801 18.5638 23.2285 18.5424C23.177 18.521 23.1217 18.51 23.0659 18.51H20.2319V9.73404H22.9999ZM1.59291 8.88404C1.51808 8.88338 1.44554 8.8582 1.38639 8.81236C1.32725 8.76652 1.28478 8.70254 1.26548 8.63024C1.24619 8.55794 1.25114 8.48131 1.27957 8.41209C1.30801 8.34288 1.35836 8.2849 1.42291 8.24704L1.44091 8.23704L1.45691 8.22604L12.4409 1.27204C12.4883 1.24797 12.5407 1.23543 12.5939 1.23543C12.6471 1.23543 12.6995 1.24797 12.7469 1.27204L23.1239 8.21804L23.1489 8.23404L23.1749 8.24904C23.2395 8.2869 23.2898 8.34488 23.3182 8.41409C23.3467 8.48331 23.3516 8.55994 23.3323 8.63224C23.313 8.70454 23.2706 8.76852 23.2114 8.81436C23.1523 8.8602 23.0797 8.88538 23.0049 8.88604H1.59291V8.88404ZM14.5659 9.73404V18.518H10.0379V9.73404H14.5659ZM5.21591 9.73404H9.18191V18.518H5.21791L5.21591 9.73404ZM22.6409 19.368V22.768H1.95691V19.368H22.6409ZM19.3819 18.518H15.4159V9.73404H19.3819V18.518Z" fill="#002269" stroke="#002269"/>
</svg>
