<svg width="28" height="29" viewBox="0 0 28 29" fill="none" xmlns="http://www.w3.org/2000/svg">
<path fill-rule="evenodd" clip-rule="evenodd" d="M0 2.41667C0 1.08198 0.693975 0 1.55004 0L26.45 0C27.306 0 28 1.08198 28 2.41667C28 3.75135 27.306 4.83333 26.45 4.83333H1.55004C0.693975 4.83333 0 3.75135 0 2.41667Z" fill="#FCFCFC"/>
<path fill-rule="evenodd" clip-rule="evenodd" d="M0 14.5C0 13.1654 0.693975 12.0834 1.55004 12.0834H26.45C27.306 12.0834 28 13.1654 28 14.5C28 15.8347 27.306 16.9167 26.45 16.9167H1.55004C0.693975 16.9167 0 15.8347 0 14.5Z" fill="#FCFCFC"/>
<path fill-rule="evenodd" clip-rule="evenodd" d="M0 26.5833C0 25.2486 0.693975 24.1666 1.55004 24.1666H26.45C27.306 24.1666 28 25.2486 28 26.5833C28 27.918 27.306 29 26.45 29H1.55004C0.693975 29 0 27.918 0 26.5833Z" fill="#FCFCFC"/>
</svg>
