<svg width="24" height="24" viewBox="0 0 24 24" fill="none" xmlns="http://www.w3.org/2000/svg">
<g>
<path fill-rule="evenodd" clip-rule="evenodd" d="M0 4C0 1.79086 1.79086 0 4 0H10.6667C11.403 0 12 0.596954 12 1.33333C12 2.06971 11.403 2.66667 10.6667 2.66667H4C3.26362 2.66667 2.66667 3.26362 2.66667 4V20C2.66667 20.7364 3.26362 21.3333 4 21.3333H20C20.7364 21.3333 21.3333 20.7364 21.3333 20V13.3333C21.3333 12.597 21.9303 12 22.6667 12C23.403 12 24 12.597 24 13.3333V20C24 22.2091 22.2091 24 20 24H4C1.79086 24 0 22.2091 0 20V4Z" fill="#5046FF"/>
<path d="M14.8802 2.72646L19.2387 2.72968L8.98266 12.9857C8.7265 13.2419 8.58259 13.5893 8.58259 13.9515C8.58259 14.3138 8.7265 14.6612 8.98266 14.9174C9.23881 15.1735 9.58624 15.3175 9.9485 15.3175C10.3108 15.3175 10.6582 15.1735 10.9143 14.9174L21.1704 4.66137L21.1704 9.02307C21.1704 9.38596 21.3145 9.73399 21.5711 9.99059C21.8277 10.2472 22.1758 10.3914 22.5386 10.3914C22.9015 10.3914 23.2496 10.2472 23.5062 9.99059C23.7628 9.73399 23.9069 9.38596 23.9069 9.02307L23.9069 1.36462C23.9069 1.18331 23.8708 1.00383 23.8007 0.836622L23.787 0.822939C23.6507 0.505518 23.3977 0.252548 23.0803 0.116262L23.0666 0.102579C22.8983 0.0301856 22.7171 -0.00758793 22.5338 -0.00849292L14.8754 -0.00849259C14.6957 -0.00849263 14.5178 0.0268987 14.3517 0.0956613C14.1857 0.164424 14.0349 0.265211 13.9078 0.392268C13.6512 0.64887 13.5071 0.996898 13.5071 1.35979C13.5071 1.72268 13.6512 2.07071 13.9078 2.32731C14.1644 2.58391 14.5125 2.72807 14.8754 2.72807L14.8802 2.72646Z" fill="#5046FF"/>
</g>
</svg>
