<svg width="19" height="24" viewBox="0 0 19 24" fill="none" xmlns="http://www.w3.org/2000/svg">
<g clip-path="url(#clip0)">
<path d="M15.7052 20.3552C15.9782 20.3546 16.2399 20.2458 16.4328 20.0527C16.6258 19.8596 16.7344 19.5979 16.7348 19.3249V6.18534L12.044 1.28796H4.36806C4.09465 1.28817 3.83249 1.39687 3.63916 1.59021C3.44582 1.78354 3.33712 2.0457 3.33691 2.31911V19.3249C3.33732 19.5981 3.44612 19.8601 3.63943 20.0533C3.83274 20.2464 4.09478 20.355 4.36806 20.3552H15.7052ZM15.7052 21.6432H4.36806C3.75332 21.6426 3.16393 21.3981 2.72917 20.9635C2.29441 20.5289 2.04978 19.9396 2.04895 19.3249V2.31911C2.04957 1.70424 2.29411 1.11472 2.72889 0.67994C3.16367 0.245158 3.75319 0.000623711 4.36806 0H12.5937L18.0236 5.66859V19.3249C18.0227 19.9395 17.7782 20.5287 17.3436 20.9633C16.909 21.3978 16.3198 21.6424 15.7052 21.6432Z" fill="#022064"/>
<path d="M17.0819 7.20857H11.7118C11.541 7.20857 11.3772 7.14072 11.2564 7.01995C11.1357 6.89918 11.0678 6.73543 11.0678 6.56463V1.03662H12.3558V5.92065H17.0819V7.20857Z" fill="#022064"/>
<path d="M14.5233 9.92447H5.56805C5.38567 9.93546 5.20634 9.87395 5.0691 9.75334C4.93186 9.63272 4.84784 9.46277 4.83533 9.28049C4.84784 9.09821 4.93186 8.92826 5.0691 8.80764C5.20634 8.68702 5.38567 8.62552 5.56805 8.63651H14.5209C14.7033 8.62552 14.8826 8.68702 15.0199 8.80764C15.1571 8.92826 15.2411 9.09821 15.2537 9.28049C15.2411 9.46234 15.1574 9.63192 15.0207 9.75247C14.884 9.87302 14.7053 9.93482 14.5233 9.92447Z" fill="#022064"/>
<path d="M14.5233 12.6759H5.56805C5.38567 12.6869 5.20634 12.6254 5.0691 12.5048C4.93186 12.3842 4.84784 12.2142 4.83533 12.032C4.84784 11.8497 4.93186 11.6797 5.0691 11.5591C5.20634 11.4385 5.38567 11.377 5.56805 11.388H14.5209C14.7033 11.377 14.8826 11.4385 15.0199 11.5591C15.1571 11.6797 15.2411 11.8497 15.2537 12.032C15.2411 12.2138 15.1574 12.3834 15.0207 12.5039C14.884 12.6245 14.7053 12.6863 14.5233 12.6759Z" fill="#022064"/>
<path d="M14.5233 15.4337H5.56805C5.38567 15.4447 5.20634 15.3832 5.0691 15.2626C4.93186 15.142 4.84784 14.972 4.83533 14.7898C4.84784 14.6075 4.93186 14.4375 5.0691 14.3169C5.20634 14.1963 5.38567 14.1348 5.56805 14.1458H14.5209C14.7033 14.1348 14.8826 14.1963 15.0199 14.3169C15.1571 14.4375 15.2411 14.6075 15.2537 14.7898C15.2411 14.9716 15.1574 15.1412 15.0207 15.2617C14.884 15.3823 14.7053 15.4441 14.5233 15.4337Z" fill="#022064"/>
<path d="M14.5233 18.1852H5.56805C5.38567 18.1962 5.20634 18.1347 5.0691 18.0141C4.93186 17.8935 4.84784 17.7235 4.83533 17.5412C4.84784 17.359 4.93186 17.189 5.0691 17.0684C5.20634 16.9478 5.38567 16.8863 5.56805 16.8973H14.5209C14.7033 16.8863 14.8826 16.9478 15.0199 17.0684C15.1571 17.189 15.2411 17.359 15.2537 17.5412C15.2411 17.7231 15.1574 17.8927 15.0207 18.0132C14.884 18.1338 14.7053 18.1956 14.5233 18.1852Z" fill="#022064"/>
<path d="M13.6563 23.9991H2.31911C1.70437 23.9985 1.11498 23.7541 0.680218 23.3195C0.245458 22.8849 0.000831537 22.2956 0 21.6808L0 4.67507C0.000623711 4.06019 0.245158 3.47068 0.67994 3.0359C1.11472 2.60112 1.70424 2.35658 2.31911 2.35596H2.35602V3.64391H2.31911C2.04583 3.64433 1.78388 3.75313 1.59071 3.94644C1.39755 4.13975 1.28895 4.40179 1.28874 4.67507V21.6808C1.28916 21.954 1.39785 22.2158 1.59099 22.4089C1.78413 22.6021 2.04597 22.7108 2.31911 22.7112H13.6563C13.9293 22.7106 14.1909 22.6018 14.3839 22.4087C14.5769 22.2155 14.6854 21.9538 14.6859 21.6808V21.6431H15.9746V21.6808C15.9738 22.2954 15.7293 22.8846 15.2947 23.3192C14.8601 23.7538 14.2709 23.9983 13.6563 23.9991Z" fill="#022064"/>
</g>
<defs>
<clipPath id="clip0">
<rect width="18.0236" height="24" fill="white"/>
</clipPath>
</defs>
</svg>
