<svg width="24" height="24" viewBox="0 0 24 24" fill="none" xmlns="http://www.w3.org/2000/svg">
<g>
<path d="M15.351 20.2178C15.2194 21.1699 14.7477 22.0422 14.023 22.6736C13.2983 23.3049 12.3696 23.6528 11.4085 23.6528C10.4474 23.6528 9.51869 23.3049 8.79402 22.6736C8.06934 22.0422 7.59763 21.1699 7.466 20.2178H1.313C0.97834 20.2305 0.652271 20.1101 0.406184 19.883C0.160097 19.6558 0.014043 19.3404 0 19.0058V17.7908C0.0291126 17.1205 0.322439 16.489 0.815843 16.0344C1.30925 15.5798 1.96258 15.3391 2.633 15.3648V10.5138C2.67337 8.81404 3.24472 7.16952 4.26693 5.81087C5.28915 4.45222 6.71096 3.44757 8.333 2.93781V2.82781C8.39679 2.05705 8.74802 1.33844 9.317 0.814608C9.88598 0.290772 10.6311 0 11.4045 0C12.1779 0 12.923 0.290772 13.492 0.814608C14.061 1.33844 14.4122 2.05705 14.476 2.82781V2.93481C16.098 3.44458 17.5198 4.44922 18.5421 5.80787C19.5643 7.16652 20.1356 8.81104 20.176 10.5108V15.3618C20.8463 15.3363 21.4995 15.5772 21.9929 16.0317C22.4862 16.4863 22.7796 17.1176 22.809 17.7878V19.0018C22.7939 19.337 22.6469 19.6525 22.3999 19.8796C22.153 20.1067 21.8262 20.2268 21.491 20.2138L15.351 20.2178ZM13.591 20.2178H9.226C9.32032 20.7279 9.5903 21.1889 9.98908 21.5207C10.3879 21.8525 10.8902 22.0342 11.409 22.0342C11.9278 22.0342 12.4301 21.8525 12.8289 21.5207C13.2277 21.1889 13.4977 20.7279 13.592 20.2178H13.591ZM21.06 18.6008V17.7878C21.0512 17.5635 20.9536 17.3518 20.7888 17.1994C20.624 17.0469 20.4053 16.9662 20.181 16.9748C19.7337 16.993 19.2976 16.8327 18.9684 16.5293C18.6393 16.2258 18.4442 15.8041 18.426 15.3568V10.5138C18.3862 9.06367 17.8675 7.66747 16.9509 6.54303C16.0343 5.41859 14.7714 4.62914 13.359 4.29781L12.726 4.12781V2.82781C12.6987 2.49745 12.5481 2.18944 12.3042 1.96491C12.0604 1.74039 11.741 1.61576 11.4095 1.61576C11.078 1.61576 10.7586 1.74039 10.5148 1.96491C10.2709 2.18944 10.1203 2.49745 10.093 2.82781V4.12781L9.456 4.29781C8.04301 4.62841 6.77926 5.41757 5.86206 6.5421C4.94485 7.66663 4.42582 9.06321 4.386 10.5138V15.3648C4.36676 15.8115 4.17147 16.2325 3.8428 16.5357C3.51414 16.8389 3.07883 16.9996 2.632 16.9828C2.52088 16.9784 2.40998 16.9959 2.30564 17.0344C2.20131 17.0729 2.10558 17.1316 2.02394 17.2071C1.9423 17.2826 1.87635 17.3734 1.82986 17.4745C1.78337 17.5755 1.75725 17.6847 1.753 17.7958V18.6088L21.06 18.6008Z" fill="#002269" stroke="#002269" stroke-width="0.3"/>
</g>
<defs>
</defs>
</svg>
