<svg width="75" height="83" viewBox="0 0 75 83" fill="none" xmlns="http://www.w3.org/2000/svg">
<g clip-path="url(#clip0_10928_135212)">
<path d="M51.62 16.859H2.545C2.27641 16.8589 2.01043 16.9117 1.76226 17.0144C1.51409 17.1171 1.2886 17.2678 1.09867 17.4577C0.908752 17.6476 0.758123 17.8731 0.655399 18.1213C0.552674 18.3694 0.499869 18.6354 0.5 18.904V80.247C0.499869 80.5156 0.552674 80.7816 0.655399 81.0298C0.758123 81.2779 0.908752 81.5034 1.09867 81.6933C1.2886 81.8833 1.51409 82.0339 1.76226 82.1366C2.01043 82.2393 2.27641 82.2921 2.545 82.292H51.62C51.8886 82.2921 52.1546 82.2393 52.4027 82.1366C52.6509 82.0339 52.8764 81.8833 53.0663 81.6933C53.2563 81.5034 53.4069 81.2779 53.5096 81.0298C53.6123 80.7816 53.6651 80.5156 53.665 80.247V18.904C53.6651 18.6354 53.6123 18.3694 53.5096 18.1213C53.4069 17.8731 53.2563 17.6476 53.0663 17.4577C52.8764 17.2678 52.6509 17.1171 52.4027 17.0144C52.1546 16.9117 51.8886 16.8589 51.62 16.859ZM49.575 78.203H4.59V20.949H49.575V78.203Z" fill="currentColor" stroke="currentColor"/>
<path d="M72.2511 4.60103L27.2661 0.509028C26.733 0.475004 26.207 0.645421 25.7951 0.985588C25.3832 1.32576 25.1164 1.8101 25.0491 2.34003L24.2191 10.519C24.1921 10.786 24.218 11.0557 24.2952 11.3127C24.3724 11.5696 24.4995 11.8089 24.6692 12.0168C24.8389 12.2246 25.0479 12.397 25.2842 12.5241C25.5206 12.6512 25.7796 12.7305 26.0466 12.7575C26.3136 12.7845 26.5833 12.7587 26.8402 12.6814C27.0972 12.6042 27.3365 12.4771 27.5443 12.3074C27.7522 12.1377 27.9246 11.9287 28.0517 11.6924C28.1788 11.4561 28.2581 11.197 28.2851 10.93L28.9121 4.76603L69.8511 8.48603L64.9191 64.959L60.1591 64.121C59.6252 64.0267 59.0758 64.1484 58.6316 64.4592C58.1874 64.7701 57.8849 65.2446 57.7906 65.7785C57.6963 66.3124 57.818 66.8619 58.1288 67.3061C58.4397 67.7502 58.9142 68.0527 59.4481 68.147L66.4051 69.373C66.5222 69.3945 66.641 69.4053 66.7601 69.405C67.2717 69.4052 67.7647 69.2135 68.1419 68.8679C68.519 68.5222 68.7528 68.0477 68.7971 67.538L74.1091 6.81403C74.1557 6.27428 73.9862 5.7381 73.6379 5.32319C73.2895 4.90829 72.7908 4.64856 72.2511 4.60103Z" fill="currentColor" stroke="currentColor"/>
<path d="M18.16 39.5587C16.5506 41.3517 15.4849 43.5659 15.0873 45.9422C14.6897 48.3186 14.9768 50.759 15.9149 52.9783L12.1201 51.0416L11.5449 52.1721L17.1874 55.0472L20.0596 49.4048L18.9327 48.8301L17.0766 52.4741C16.0489 50.0431 15.8969 47.3307 16.6467 44.8002C17.3964 42.2696 19.0014 40.0777 21.1875 38.5988C23.3736 37.12 26.0053 36.4459 28.6331 36.6916C31.261 36.9373 33.7221 38.0876 35.5961 39.9461C37.4701 41.8046 38.6409 44.256 38.9085 46.8817C39.1761 49.5074 38.524 52.1446 37.0634 54.343C35.6028 56.5413 33.4244 58.1645 30.9001 58.9353C28.3759 59.7061 25.6623 59.5768 23.2228 58.5693L22.7396 59.7396C24.8849 60.6249 27.2321 60.9037 29.525 60.5455C31.8179 60.1874 33.9683 59.2061 35.7413 57.7088C37.5144 56.2115 38.8419 54.2557 39.5789 52.0552C40.316 49.8546 40.4342 47.4939 39.9206 45.2307C39.407 42.9675 38.2814 40.889 36.6668 39.2221C35.0521 37.5552 33.0105 36.3641 30.7648 35.7787C28.5191 35.1934 26.1558 35.2364 23.9329 35.903C21.71 36.5696 19.713 37.8342 18.16 39.5587V39.5587Z" fill="currentColor" stroke="currentColor" stroke-width="1.5"/>
</g>
<defs>
<clipPath id="clip0_10928_135212">
<rect width="74.62" height="82.793" fill="white"/>
</clipPath>
</defs>
</svg>
