<svg width="104" height="68" viewBox="0 0 104 68" fill="none" xmlns="http://www.w3.org/2000/svg">
<g clip-path="url(#clip0_10928_135206)">
<path d="M102.337 20.2229L78.5061 1.24695C78.2797 1.0626 78.0191 0.924704 77.7393 0.841156C77.4596 0.757608 77.1661 0.730045 76.8756 0.760046C76.5852 0.790046 76.3035 0.877021 76.0467 1.01599C75.7899 1.15496 75.5631 1.34321 75.3791 1.56995L66.8611 12.2449C66.6768 12.4714 66.5389 12.7319 66.4553 13.0117C66.3718 13.2915 66.3442 13.585 66.3742 13.8754C66.4042 14.1659 66.4912 14.4475 66.6301 14.7043C66.7691 14.9611 66.9574 15.188 67.1841 15.372L67.6151 15.6949L53.0611 23.6729C52.7657 23.8372 52.5137 24.0696 52.3262 24.3509C52.1387 24.6321 52.0211 24.9541 51.9831 25.2899L47.2371 61.7339C47.2057 62.1131 47.2688 62.4942 47.4209 62.8429C47.5729 63.1917 47.8091 63.4973 48.1083 63.7324C48.4075 63.9674 48.7603 64.1246 49.1351 64.1898C49.51 64.255 49.8951 64.2262 50.2561 64.1059L84.7561 51.2749C85.0948 51.1566 85.3995 50.9573 85.6435 50.6943C85.8875 50.4313 86.0635 50.1126 86.1561 49.7659L90.6841 33.9159L91.1151 34.2389C91.3415 34.4233 91.6021 34.5612 91.8819 34.6447C92.1616 34.7283 92.4551 34.7558 92.7456 34.7258C93.036 34.6959 93.3177 34.6089 93.5745 34.4699C93.8313 34.3309 94.0581 34.1427 94.2421 33.9159L102.76 23.2419C102.935 23.0177 103.063 22.7606 103.137 22.4859C103.21 22.2112 103.228 21.9245 103.188 21.6428C103.149 21.3611 103.053 21.0903 102.907 20.8464C102.761 20.6025 102.567 20.3904 102.337 20.2229ZM82.0641 47.6109L56.1871 57.2109L65.5671 45.4589C67.3108 46.222 69.2565 46.3926 71.1064 45.9447C72.9563 45.4968 74.6085 44.4551 75.8101 42.9789C76.818 41.7164 77.4533 40.1974 77.6442 38.5932C77.8351 36.989 77.5741 35.3634 76.8906 33.8996C76.2072 32.4357 75.1284 31.1919 73.7759 30.3084C72.4234 29.4248 70.851 28.9366 69.2359 28.8988C67.6208 28.861 66.0273 29.2751 64.6349 30.0944C63.2426 30.9137 62.1068 32.1057 61.3555 33.5359C60.6043 34.9662 60.2676 36.5778 60.3832 38.1892C60.4989 39.8006 61.0623 41.3476 62.0101 42.6559L52.6301 54.4079L56.2951 27.011L71.0661 18.4929L87.0241 31.2209L82.0641 47.6109ZM65.7831 34.8869C66.2949 34.2473 66.9848 33.7737 67.7657 33.5261C68.5466 33.2786 69.3834 33.2681 70.1702 33.4961C70.957 33.7241 71.6586 34.1803 72.1862 34.807C72.7137 35.4337 73.0436 36.2028 73.1341 37.017C73.2246 37.8312 73.0716 38.6539 72.6945 39.3811C72.3174 40.1084 71.7331 40.7075 71.0155 41.1027C70.2979 41.4978 69.4793 41.6714 68.6631 41.6013C67.8469 41.5312 67.0698 41.2207 66.4301 40.7089C65.589 40.0114 65.0514 39.0147 64.9307 37.9286C64.81 36.8426 65.1156 35.7521 65.7831 34.8869ZM92.0911 29.4959L71.7131 13.3229L77.4281 6.21095L97.8061 22.4869L92.0911 29.4959Z" fill="#FAF874" stroke="#001136" stroke-width="1.5"/>
<path d="M40.6621 62.5969C30.7757 63.0702 20.8684 62.854 11.0121 61.9499C37.2121 56.7749 39.1531 54.4029 38.9371 51.4909C38.7211 48.4719 35.4871 46.8549 17.9121 45.7769C17.3187 45.7601 16.7424 45.9768 16.3069 46.3803C15.8715 46.7838 15.6118 47.342 15.5835 47.935C15.5552 48.5279 15.7607 49.1083 16.1557 49.5515C16.5507 49.9946 17.1038 50.2651 17.6961 50.3049C26.2141 50.7359 30.5271 51.3829 32.6831 51.9219C29.7671 53.1079 22.7671 55.1569 6.59107 58.1759C4.32707 58.6069 0.445066 59.3619 0.769066 62.2759C1.20007 66.4759 16.8341 67.2359 29.1261 67.2359C33.9781 67.2359 38.1831 67.1279 40.7711 67.0199C41.0735 67.0219 41.3729 66.9602 41.6498 66.8387C41.9268 66.7173 42.1751 66.5389 42.3785 66.3151C42.5819 66.0913 42.7358 65.8272 42.8304 65.5399C42.9249 65.2527 42.9578 64.9487 42.9271 64.6479C42.8781 64.0833 42.6175 63.558 42.1973 63.1776C41.7772 62.7972 41.2288 62.5897 40.6621 62.5969Z" fill="#FAF874" stroke="#032567" stroke-width="1.5"/>
</g>
<defs>
<clipPath id="clip0_10928_135206">
<rect width="103.973" height="67.983" fill="white"/>
</clipPath>
</defs>
</svg>
