<svg width="53" height="82" viewBox="0 0 53 82" fill="none" xmlns="http://www.w3.org/2000/svg">
<g clip-path="url(#clip0_11167_138030)">
<path d="M52.3569 41.1605L28.0196 0.957539C27.8424 0.6648 27.5927 0.422723 27.2946 0.254705C26.9965 0.0866876 26.66 -0.00158691 26.3178 -0.00158691C25.9756 -0.00158691 25.6393 0.0866876 25.3412 0.254705C25.0431 0.422723 24.7933 0.6648 24.6161 0.957539L0.272705 41.1605C0.11144 41.4335 0.0174334 41.7409 -0.00154443 42.0574C-0.0205223 42.3738 0.0360975 42.6903 0.163587 42.9806L9.2178 62.9798C7.14215 63.9202 5.45217 65.5445 4.43031 67.5813C3.40845 69.6181 3.11666 71.9439 3.60366 74.17C4.09067 76.3961 5.32696 78.3876 7.10595 79.8116C8.88494 81.2356 11.0988 82.0059 13.3775 81.9937H39.2474C41.5104 81.986 43.7032 81.2071 45.464 79.7856C47.2248 78.364 48.4485 76.3847 48.9331 74.1742C49.4177 71.9637 49.1343 69.654 48.1297 67.6262C47.1252 65.5984 45.4594 63.9735 43.4071 63.0198L52.4614 42.9806C52.5904 42.6908 52.6483 42.3745 52.6301 42.0578C52.6119 41.7412 52.5182 41.4335 52.3569 41.1605ZM26.3178 35.9339C27.0914 35.9318 27.8482 36.1591 28.4925 36.5871C29.1368 37.0151 29.6397 37.6246 29.9376 38.3385C30.2355 39.0523 30.3151 39.8385 30.1661 40.5976C30.0172 41.3566 29.6465 42.0545 29.101 42.6028C28.5554 43.1512 27.8595 43.5254 27.1012 43.6782C26.3429 43.831 25.5563 43.7556 24.8409 43.4613C24.1256 43.167 23.5135 42.6672 23.0823 42.0251C22.651 41.383 22.4198 40.6274 22.4179 39.8539V39.8339C22.4208 38.8004 22.8326 37.8101 23.5633 37.0793C24.2941 36.3486 25.2844 35.9368 26.3178 35.9339ZM45.2257 72.0586C45.2257 73.6421 44.5966 75.1608 43.4769 76.2805C42.3572 77.4002 40.8386 78.0292 39.2551 78.0292H13.3837C12.5916 78.0419 11.805 77.8969 11.0696 77.6026C10.3341 77.3083 9.66464 76.8706 9.10005 76.315C8.53545 75.7594 8.08708 75.097 7.78101 74.3664C7.47495 73.6357 7.31729 72.8515 7.31729 72.0594C7.31729 71.2673 7.47495 70.4831 7.78101 69.7525C8.08708 69.0219 8.53545 68.3595 9.10005 67.8038C9.66464 67.2482 10.3341 66.8105 11.0696 66.5162C11.805 66.2219 12.5916 66.0769 13.3837 66.0896H39.2536C40.8351 66.0896 42.3519 66.7172 43.4711 67.8346C44.5902 68.952 45.2201 70.4679 45.2226 72.0494L45.2257 72.0586ZM39.455 62.1082H13.1854L4.23107 42.3272L24.3302 9.16476V32.2231C22.4733 32.707 20.8563 33.8511 19.782 35.4412C18.7077 37.0312 18.2497 38.9583 18.4936 40.8617C18.7376 42.7651 19.6668 44.5144 21.1074 45.7821C22.548 47.0498 24.4012 47.7492 26.3202 47.7492C28.2392 47.7492 30.0923 47.0498 31.5329 45.7821C32.9735 44.5144 33.9027 42.7651 34.1467 40.8617C34.3907 38.9583 33.9326 37.0312 32.8583 35.4412C31.784 33.8511 30.1671 32.707 28.3101 32.2231V9.16476L48.4092 42.338L39.455 62.1082Z" fill="currentColor"/>
</g>
<defs>
<clipPath id="clip0_11167_138030">
<rect width="52.636" height="82" fill="white"/>
</clipPath>
</defs>
</svg>
