<svg width="24" height="24" viewBox="0 0 24 24" fill="none" xmlns="http://www.w3.org/2000/svg">
<path fill-rule="evenodd" clip-rule="evenodd" d="M12 22.7143C17.9173 22.7143 22.7143 17.9173 22.7143 12C22.7143 6.08266 17.9173 1.28571 12 1.28571C6.08266 1.28571 1.28571 6.08266 1.28571 12C1.28571 17.9173 6.08266 22.7143 12 22.7143ZM12 24C18.6274 24 24 18.6274 24 12C24 5.37258 18.6274 0 12 0C5.37258 0 0 5.37258 0 12C0 18.6274 5.37258 24 12 24Z" fill="#002269"/>
<path d="M11.9965 5.60303C11.0067 5.60185 10.0472 5.94396 9.28149 6.57103C8.51575 7.1981 7.99118 8.07133 7.7972 9.04186C7.60321 10.0124 7.75182 11.0202 8.21768 11.8934C8.68355 12.7666 9.43784 13.4513 10.352 13.8307C11.2661 14.21 12.2835 14.2606 13.2308 13.9738C14.1781 13.687 14.9966 13.0805 15.5468 12.2578C16.0969 11.4351 16.3448 10.4471 16.248 9.46206C16.1513 8.47707 15.7159 7.55611 15.0162 6.85617C14.2156 6.05458 13.1294 5.60381 11.9965 5.60303ZM11.9965 13.4647C11.1653 13.4655 10.3595 13.178 9.7165 12.6513C9.07351 12.1245 8.6331 11.391 8.47033 10.5759C8.30755 9.76081 8.43249 8.91446 8.82384 8.18114C9.21519 7.44782 9.84874 6.8729 10.6165 6.55439C11.3843 6.23587 12.2387 6.19346 13.0343 6.43438C13.8298 6.6753 14.5172 7.18465 14.9792 7.87562C15.4413 8.56658 15.6494 9.39639 15.5681 10.2236C15.4869 11.0509 15.1213 11.8243 14.5336 12.4122C14.2005 12.7456 13.805 13.0102 13.3697 13.1908C12.9344 13.3714 12.4678 13.4645 11.9965 13.4647Z" fill="#002269" stroke="#002269"/>
<path d="M11.9996 13.6001C10.935 13.6002 9.88365 13.814 8.92129 14.2261C7.95894 14.6382 7.10951 15.2383 6.43418 15.9833C5.75884 16.7282 5.27441 17.5995 5.01575 18.5343C4.7571 19.4691 4.80801 20.053 5.0157 20.9981C5.17055 21.7006 9.12788 23.6473 13.2 23.2001C16.0868 22.8831 19.2 20.691 19.2 20.1186C19.1981 18.3905 18.4388 16.7336 17.089 15.5116C15.7391 14.2895 13.9087 13.6021 11.9996 13.6001ZM6.41309 22.2136C6.07107 21.4658 5.91649 20.6586 5.96048 19.8501C6.00448 19.0417 6.24596 18.2522 6.66754 17.5384C7.08911 16.8245 7.6803 16.2042 8.39852 15.7221C9.11675 15.2399 9.94414 14.9079 10.8211 14.75C11.6981 14.592 12.6029 14.612 13.4703 14.8086C14.3378 15.0052 15.1462 15.3734 15.8376 15.8868C16.5289 16.4002 17.0859 17.0459 17.4684 17.7775C17.8509 18.5091 18.0494 19.3084 18.0497 20.1178C18.0497 20.6184 18.0497 21.8649 18.0497 21.8649C16.378 22.5798 14.5802 23.0227 12.7388 23.1731C9.8732 23.3558 6.57347 22.5649 6.41309 22.2136Z" fill="#002269" stroke="#002269" stroke-width="0.5"/>
</svg>
