<svg width="29" height="29" viewBox="0 0 29 29" fill="none" xmlns="http://www.w3.org/2000/svg">
<path fill-rule="evenodd" clip-rule="evenodd" d="M9.35478 16.371H4.67736C4.41904 16.371 4.20962 16.5804 4.20962 16.8387V23.8549H9.82253V16.8387C9.82253 16.5804 9.61311 16.371 9.35478 16.371ZM4.67736 14.9678C3.64406 14.9678 2.8064 15.8054 2.8064 16.8387V23.8549V25.2581H4.20962H9.82253H11.2258V23.8549V16.8387C11.2258 15.8054 10.3881 14.9678 9.35478 14.9678H4.67736Z" fill="#B3BDD2"/>
<path fill-rule="evenodd" clip-rule="evenodd" d="M16.8387 5.14517H12.1613C11.9029 5.14517 11.6935 5.35458 11.6935 5.61291V23.8548H17.3064V5.61291C17.3064 5.35458 17.097 5.14517 16.8387 5.14517ZM12.1613 3.74194C11.1279 3.74194 10.2903 4.5796 10.2903 5.61291V23.8548V25.2581H11.6935H17.3064H18.7096V23.8548V5.61291C18.7096 4.5796 17.872 3.74194 16.8387 3.74194H12.1613Z" fill="#B3BDD2"/>
<path fill-rule="evenodd" clip-rule="evenodd" d="M24.3226 11.6936H19.6451C19.3868 11.6936 19.1774 11.903 19.1774 12.1613V23.8549H24.7903V12.1613C24.7903 11.903 24.5809 11.6936 24.3226 11.6936ZM19.6451 10.2903C18.6118 10.2903 17.7742 11.128 17.7742 12.1613V23.8549V25.2581H19.1774H24.7903H26.1935V23.8549V12.1613C26.1935 11.128 25.3559 10.2903 24.3226 10.2903H19.6451Z" fill="#B3BDD2"/>
<path fill-rule="evenodd" clip-rule="evenodd" d="M0 24.5564C0 24.1689 0.314123 23.8548 0.701613 23.8548H28.2984C28.6859 23.8548 29 24.1689 29 24.5564C29 24.9439 28.6859 25.258 28.2984 25.258H0.701613C0.314123 25.258 0 24.9439 0 24.5564Z" fill="#B3BDD2"/>
</svg>
