<svg width="8" height="12" viewBox="0 0 8 12" fill="none" xmlns="http://www.w3.org/2000/svg">
<path d="M1.20135 12C0.962838 11.9992 0.729924 11.9277 0.532108 11.7945C0.334292 11.6612 0.180463 11.4722 0.0901492 11.2514C-0.000165068 11.0307 -0.0229075 10.7881 0.0247801 10.5544C0.0724676 10.3207 0.188438 10.1064 0.358023 9.93868L4.32039 6.02095L0.353207 2.05733C0.12715 1.83143 0.000113041 1.52498 7.53955e-08 1.2054C-0.00011289 0.885815 0.126721 0.5793 0.352618 0.353243C0.578516 0.127186 0.88497 0.000113041 1.20455 7.53738e-08C1.52413 -0.00011289 1.83064 0.126758 2.0567 0.352655L6.88166 5.17159C6.9944 5.28356 7.08389 5.41674 7.14494 5.56344C7.206 5.71013 7.23741 5.86742 7.23741 6.02631C7.23741 6.18521 7.206 6.34257 7.14494 6.48927C7.08389 6.63596 6.9944 6.76914 6.88166 6.88111L2.0567 11.6506C1.94413 11.7623 1.81064 11.8506 1.66386 11.9106C1.51708 11.9705 1.3599 12.0009 1.20135 12Z" fill="#5046FF"/>
</svg>
