<svg width="30" height="22" viewBox="0 0 30 22" fill="none" xmlns="http://www.w3.org/2000/svg">
    <path d="M15.2735 15.6492L24.11 13.7841C24.3551 13.7323 24.5537 13.5529 24.6301 13.3143L26.1473 8.57215C26.5746 8.14486 29.3428 5.37672 29.796 4.92341C30.0683 4.6511 30.0683 4.2096 29.796 3.93738L26.0629 0.204229C25.7906 -0.0680763 25.3491 -0.0680763 25.0768 0.204229C24.6259 0.655127 21.8894 3.39166 21.4633 3.81783L16.6678 5.35199C16.4292 5.42842 16.2498 5.6269 16.1981 5.87215L14.3329 14.7086C14.0693 15.2925 14.6827 15.9161 15.2735 15.6492ZM25.5698 1.68327L28.3169 4.4304L27.4364 5.3109L24.6893 2.56377L25.5698 1.68327ZM23.7032 3.54989L26.4504 6.29702L25.5699 7.17753L22.8228 4.43049L23.7032 3.54989ZM17.4788 6.55668L21.6443 5.22407L24.7581 8.33787L23.4254 12.5033L17.1147 13.8354L20.8165 10.1336C21.0888 9.86134 21.0888 9.41984 20.8165 9.14753C20.5442 8.87523 20.1027 8.87523 19.8305 9.14753L16.1565 12.8215L17.4788 6.55668Z" fill="white"/>
    <path fill-rule="evenodd" clip-rule="evenodd" d="M7.25633 20.0337C7.14424 20.5962 6.94525 21.1874 6.52118 21.5418C6.1718 21.8338 5.74398 22.0021 5.28061 21.8863C4.85754 21.7805 4.55028 21.4701 4.33123 21.1641C3.89248 20.5512 3.55072 19.5862 3.26067 18.605C3.06939 17.9579 2.88647 17.2505 2.71081 16.5712C2.61669 16.2073 2.52465 15.8513 2.43453 15.5171C2.18579 14.5945 1.95583 13.8551 1.72885 13.4103C1.71631 13.4435 1.70356 13.4791 1.69067 13.5171C1.45244 14.2194 1.29236 15.3539 1.22249 16.2092C1.19495 16.5462 0.89943 16.7971 0.56242 16.7695C0.22541 16.742 -0.025469 16.4465 0.00206631 16.1095C0.0736335 15.2335 0.242411 13.9748 0.531066 13.1238C0.604387 12.9076 0.693021 12.6944 0.802724 12.5124C0.904645 12.3433 1.06807 12.1274 1.32296 12.009C1.63246 11.8652 1.95502 11.9179 2.21167 12.0883C2.43207 12.2347 2.59975 12.4613 2.73466 12.6966C3.07272 13.2862 3.35576 14.2302 3.6168 15.1983C3.71411 15.5592 3.8094 15.928 3.90492 16.2976C4.07652 16.9615 4.24885 17.6284 4.43493 18.2579C4.72834 19.2505 5.02307 20.0269 5.32691 20.4514C5.47484 20.658 5.56452 20.6944 5.57672 20.6981C5.57842 20.6978 5.58167 20.6972 5.58669 20.6957C5.60619 20.6897 5.65611 20.669 5.73598 20.6022C5.81581 20.5355 5.95164 20.3153 6.05545 19.7944C6.15282 19.3058 6.20042 18.6705 6.21427 17.9287C6.23337 16.9059 6.18849 15.7493 6.14316 14.5812C6.12243 14.0471 6.10161 13.5105 6.08678 12.9832C6.06344 12.1541 6.05543 11.3524 6.08996 10.6464C6.12398 9.95067 6.20091 9.30143 6.36812 8.79872C6.52523 8.32638 6.84438 7.75488 7.50689 7.6619C8.0991 7.57879 8.67432 7.93823 9.19155 8.40649C11.3708 10.3794 12.1686 13.6117 12.6522 15.687C12.6739 15.78 12.6949 15.8704 12.7152 15.9583C12.8122 16.3766 12.8956 16.7366 12.9774 17.0358C12.9883 17.0755 12.9988 17.1131 13.0091 17.1486C13.0402 17.0881 13.073 17.0217 13.1076 16.949C13.2529 16.6436 13.6182 16.5139 13.9235 16.6592C14.2289 16.8045 14.3586 17.1698 14.2133 17.4751C14.0944 17.7249 13.9801 17.9388 13.8681 18.1134C13.7604 18.2814 13.6337 18.4468 13.4806 18.5692C13.3227 18.6954 13.0707 18.8243 12.7627 18.7611C12.477 18.7024 12.3002 18.508 12.2047 18.3733C12.0198 18.1126 11.8964 17.725 11.7963 17.3587C11.7075 17.0341 11.6173 16.6448 11.5204 16.2263C11.5004 16.1403 11.4802 16.053 11.4597 15.9649C10.962 13.8292 10.2217 10.9908 8.36975 9.31424C8.14257 9.10857 7.96747 8.98996 7.84006 8.92775C7.75701 8.88719 7.70871 8.87749 7.68795 8.87526C7.66258 8.89719 7.60139 8.9706 7.53002 9.18519C7.4171 9.52467 7.34567 10.0378 7.31298 10.7062C7.2808 11.3644 7.2877 12.1286 7.31078 12.9488C7.32475 13.4451 7.34485 13.9639 7.36518 14.4888C7.41115 15.6753 7.45832 16.8928 7.43855 17.9516C7.42422 18.7188 7.37485 19.4389 7.25633 20.0337ZM7.70046 8.86704C7.70056 8.86737 7.69845 8.86889 7.69384 8.87057C7.69806 8.86754 7.70037 8.8667 7.70046 8.86704ZM13.2067 17.6692C13.2067 17.6692 13.2058 17.6681 13.204 17.6656C13.2058 17.6678 13.2067 17.6691 13.2067 17.6692Z" fill="white"/>
    </svg>
