<svg width="25" height="24" viewBox="0 0 25 24" fill="none" xmlns="http://www.w3.org/2000/svg">
<path fill-rule="evenodd" clip-rule="evenodd" d="M11.6882 0.565794L9.49354 7.39282C9.38722 7.724 9.17983 8.01263 8.90111 8.21732C8.62239 8.422 8.28667 8.53221 7.94212 8.53213H0.81688C0.029492 8.53213 -0.300487 9.5377 0.33381 10.0042L6.09874 14.2444C6.37723 14.449 6.58447 14.7374 6.69076 15.0684C6.79705 15.3994 6.79693 15.7558 6.69042 16.0867L4.48896 22.9314C4.24688 23.684 5.1103 24.3061 5.74763 23.8382L11.4984 19.6161C11.777 19.4116 12.1124 19.3016 12.4566 19.3016C12.8009 19.3016 13.1363 19.4116 13.4148 19.6161L19.1656 23.8382C19.8029 24.3061 20.6663 23.684 20.4243 22.9314L18.2228 16.0867C18.1165 15.7557 18.1166 15.3991 18.2232 15.0681C18.3297 14.7371 18.5373 14.4488 18.816 14.2444L24.5908 10.0046C25.2258 9.53845 24.896 8.53213 24.1083 8.53213H16.9882C16.6434 8.53254 16.3073 8.42248 16.0283 8.21778C15.7493 8.01307 15.5416 7.72425 15.4352 7.39282L13.2406 0.565792C12.9981 -0.188598 11.9307 -0.188597 11.6882 0.565794Z" fill="#463EE6"/>
</svg>
