<svg width="26" height="26" viewBox="0 0 26 26" fill="none" xmlns="http://www.w3.org/2000/svg">
<path d="M10.3891 9.16122L12.8883 1L15.3874 9.16122C15.4769 9.45391 15.6516 9.70896 15.8863 9.88974C16.1211 10.0705 16.4038 10.1677 16.6938 10.1673H24.7766L18.2315 15.2118C17.997 15.3923 17.8224 15.647 17.7327 15.9393C17.6431 16.2315 17.643 16.5464 17.7324 16.8388L20.2329 25L13.6878 19.9555C13.4535 19.775 13.1713 19.6778 12.8817 19.6778C12.5922 19.6778 12.31 19.775 12.0757 19.9555L5.53061 25L8.03107 16.8388C8.12066 16.5466 8.12076 16.2318 8.03135 15.9395C7.94193 15.6473 7.7676 15.3925 7.53333 15.2118L1 10.1673H9.08403C9.37387 10.1674 9.65629 10.0701 9.89076 9.88933C10.1252 9.70858 10.2997 9.45368 10.3891 9.16122Z" stroke="#5046FF" stroke-width="1.5" stroke-linecap="round" stroke-linejoin="round"/>
</svg>
